# xmcd
#
# Track frame offsets: 
#        150
#        23240
#        35376
#        52601
#        74331
#        86838
#        101748
#        115967
#        135834
#        152188
#        165508
#        185917
#        202807
#
# Disc length: 2867 seconds
#
# Revision: 1
# Processed by: cddbd v1.5.2PL0 Copyright (c) Steve Scherf et al.
# Submitted via: ExactAudioCopy v0.90b4
#
DISCID=a60b310d
DTITLE=Trenul De Noapte - Dependent De Blues
DYEAR=2007
DGENRE=Blues
TTITLE0=Zi De Zi (Cu Prietenii Cant Blues)
TTITLE1=Nu Ma Mai Stresa
TTITLE2=Country Blues Fantasy - Part.1
TTITLE3=Pe-aceleasi Strazi
TTITLE4=Junkin' With Mark and Junior
TTITLE5=Cicaleala Ei M-a Innebunit
TTITLE6=Chromatic Jump
TTITLE7=Dependent De Poker
TTITLE8=Trenul De Noapte
TTITLE9=Pe-un Drum Gresit
TTITLE10=Country Blues Fantasy - Part.2
TTITLE11=Spui Ca Femeia Ta-i Urata
TTITLE12=Give Me Strength
EXTD=
EXTT0=
EXTT1=
EXTT2=
EXTT3=
EXTT4=
EXTT5=
EXTT6=
EXTT7=
EXTT8=
EXTT9=
EXTT10=
EXTT11=
EXTT12=
PLAYORDER=
